<?xml version="1.0" encoding="utf-8"?>
<!-- Generator: Adobe Illustrator 19.0.0, SVG Export Plug-In . SVG Version: 6.00 Build 0)  -->
<svg version="1.1" id="paw-svg-draw" xmlns="http://www.w3.org/2000/svg" xmlns:xlink="http://www.w3.org/1999/xlink" x="0px" y="0px"
	 viewBox="0 0 295.5 279.5" style="enable-background:new 0 0 295.5 279.5;" xml:space="preserve" width="24" height="24">
<style type="text/css">
	@import "../node_modules/bootstrap/scss/bootstrap";
	.st0{
	fill:#999;

		:hover{

		}
	}
</style>
<g id="paw-svg-draw-grid">
	<path id="XMLID_167_" class="st0" d="M202.2,159.2c-4.7-5.8-10-11.8-16.1-16.6c-12.3-9.7-27.2-11.2-37.3-11.5l-0.4,0l-0.4,0
		c-1.3,0.1-2.7,0.3-4,0.4c-3.1,0.3-6.3,0.6-9.5,1.1c-11.7,2.1-21,6.6-28.5,13.7c-8.4,7.9-16,16.7-22.4,26.2
		c-8.9,13-17.8,26.5-27.2,41.4c-4.1,6.5-8.2,13.7-9.9,22.2c-2.8,13.4,1.5,30.4,17.4,38.4c6.4,3.2,13.1,4.2,18.2,4.7
		c13.7,1.4,26.3-1.7,38.7-9.2c2.9-1.8,6.5-3.3,10.9-4.5c7.7-2.2,15.7-1.8,25.3-1.2c4.7,0.3,9.6,1.7,13.3,2.9c1.9,0.6,3.8,1.8,5.8,3
		c0.8,0.5,1.7,1,2.5,1.5c9.4,5.3,19.4,7.9,29.8,7.9c5.3,0,10.8-0.7,16.3-2.1c13.6-3.4,22.3-12.2,25.3-25.2
		c2.1-9.5,0.5-19.2-4.7-28.8C233.6,201.2,219,179.6,202.2,159.2z M239.5,249.7c-2,9-7.7,14.6-17.2,17c-13.5,3.4-26.3,1.8-38.1-4.7
		c-0.8-0.4-1.5-0.9-2.3-1.3c-2.4-1.4-5.1-3-8.1-4c-4.3-1.4-10-3-15.9-3.4c-4.1-0.3-8-0.5-11.9-0.5c-5.8,0-11.4,0.5-17.1,2.1
		c-5.4,1.5-9.9,3.4-13.7,5.7c-10.3,6.3-20.7,8.8-31.9,7.7c-6.3-0.6-10.6-1.7-14.4-3.6c-11.4-5.7-13.3-17.7-11.5-26.2
		c1.4-6.8,4.9-12.9,8.5-18.5c9.3-14.7,18.1-28.2,26.9-41c6-8.8,13.1-17,20.9-24.4c5.9-5.6,13.4-9.1,22.9-10.9c2.7-0.5,5.5-0.7,8.5-1
		c1.3-0.1,2.5-0.2,3.8-0.4c13.6,0.4,23,3.2,30.4,9.1c5,3.9,9.4,8.8,14.4,14.9c16.3,19.9,30.5,40.8,42.1,62.3
		C239.8,235.9,241,242.8,239.5,249.7z"/>
	<path id="XMLID_170_" class="st0" d="M150.8,64.7c0.4,3.9,0.9,8,1.7,12c2.8,13.7,8.4,24.3,17.1,32.4c6,5.6,13.2,8.4,20.4,8.4
		c6.1,0,12.3-2,17.9-6.2c8.2-6,14-14.7,17.8-26.6c5.1-15.9,5.5-32.2,1-48.6c-3.3-12.1-8.7-21.2-16.3-27.9
		C200.4-0.5,189.1-2.3,177.7,3c-6.7,3.1-12.2,8.4-16.8,16.1c-6.7,11-10.1,23.5-10.7,39.5l0,0.5l0.1,0.5
		C150.4,61.3,150.6,63,150.8,64.7z M170.3,24.8c3.6-5.9,7.4-9.6,12.1-11.9c7.4-3.5,14-2.4,20.9,3.6c6.1,5.3,10.2,12.4,12.9,22.5
		c3.9,14.3,3.6,28.5-0.9,42.3c-3.2,9.8-7.6,16.5-13.9,21.2c-7.8,5.8-17.1,5.2-24.3-1.5c-7-6.5-11.5-15.2-13.8-26.5
		c-0.7-3.5-1.1-7.2-1.6-11c-0.2-1.6-0.4-3.2-0.6-4.9C161.8,44.8,164.7,34,170.3,24.8z"/>
	<path id="XMLID_173_" class="st0" d="M84.2,115.8c6.2,5.3,12.9,8,19.8,8c4.1,0,8.2-0.9,12.4-2.8c6.8-3.1,12.4-8.4,17.1-16.1
		c6.7-11,10.1-23.6,10.8-39.7l0-0.5l-0.1-0.5c-0.2-1.7-0.4-3.4-0.6-5.1c-0.4-3.9-0.9-8-1.7-12c-2.9-13.8-8.5-24.5-17.3-32.5
		c-11-10-25.8-10.9-37.8-2.3c-7,5.1-12.3,12-16,21.2c-7.4,18-8.2,36.9-2.6,56.2C71.5,100.9,76.7,109.4,84.2,115.8z M80.9,37.6
		c3-7.2,7-12.6,12.3-16.5c3.5-2.5,7.3-3.8,11.1-3.8c4.5,0,9,1.8,12.8,5.3c7.1,6.5,11.6,15.2,14,26.6c0.7,3.5,1.1,7.2,1.6,11
		c0.2,1.6,0.4,3.2,0.6,4.9c-0.6,14-3.6,24.8-9.2,34c-3.6,5.9-7.5,9.7-12.3,11.9c-7.2,3.3-13.7,2.2-20.4-3.5
		c-5.8-4.9-9.9-11.8-12.6-20.9C73.8,69.7,74.5,53.2,80.9,37.6z"/>
	<path id="XMLID_176_" class="st0" d="M291.8,102.5c-5-12.2-16.4-19.1-29-17.6c-6.4,0.8-12.4,3.1-17.7,6.9
		c-18.5,13.4-29.2,32.8-31.1,56.3l0,0.2l0,0.2c0,8.4,0.7,15.4,3.7,22.4c4.9,11.2,14.1,17.5,25.5,17.5c1.1,0,2.2-0.1,3.3-0.2
		c7.6-0.8,14.6-4,21.6-9.8c13.5-11.2,22.3-26.3,26.1-44.9C296.5,122.2,295.7,112,291.8,102.5z M283.4,131.5
		c-3.3,16.3-10.6,28.9-22.3,38.6c-5.3,4.4-10.4,6.7-15.7,7.3c-10.2,1-15.2-5.3-17.6-10.7c-2-4.5-2.7-9.5-2.8-17.8
		c1.7-20.1,10.9-36.7,26.6-48.1c3.8-2.7,8-4.4,12.6-4.9c7.7-0.9,14.4,3.3,17.5,10.9C284.7,114.1,285.3,122.2,283.4,131.5z"/>
	<path id="XMLID_179_" class="st0" d="M76.6,173.1c3.2-6.2,4.7-13,4.7-22.2l0-0.1l0-0.1c-0.4-14-4.7-27.4-12.8-39.8
		c-7.2-11.2-15.8-18.8-26.1-23.4C28.3,81.3,13.7,85.4,6,97.7c-4,6.4-6,13.9-6,22.1c0,20.6,7.4,38.7,22.1,54.1
		c6.1,6.4,13.1,10.8,20.9,13.2c3.1,1,6.2,1.4,9.2,1.4C62.4,188.6,71.5,183,76.6,173.1z M30,166.3c-12.6-13.2-19-28.9-19-46.5
		c0-6.1,1.5-11.6,4.4-16.3c3.2-5.1,8.2-7.8,14-7.8c2.8,0,5.7,0.6,8.6,1.9c8.3,3.7,15.3,10,21.4,19.3c6.9,10.7,10.6,22.1,11,34
		c-0.1,7.3-1.1,12.6-3.5,17.1c-4.2,8.1-11.9,11.3-20.6,8.5C40.2,174.7,34.9,171.3,30,166.3z"/>
</g>
</svg>
